<svg width="466" height="466" viewBox="0 0 466 466" fill="none" xmlns="http://www.w3.org/2000/svg">
<g clip-path="url(#clip0_146_22)">
<rect width="466" height="466" fill="white"/>
<rect x="-67" y="-24" width="569" height="518" rx="10" fill="#0B0B0D"/>
<g opacity="0.1">
<path d="M389.918 -95L252.981 196.665H31.8997L167.086 370.205H-7.91257L-115.099 229.769L-220.39 442.1L-394.222 561.537L-106.787 -33.6045L-197.495 -95H389.918ZM219.732 17.291H-15.4958L-44.6623 82.3322H189.836L219.732 17.291Z" fill="#A8A7A7"/>
<path d="M860.373 -95L812.978 17.291H586.5L386.418 433.351L219.732 544.037L472.459 17.291H381.168L433.814 -95H860.373Z" fill="#A8A7A7"/>
</g>
<path d="M282.796 111L238.883 204.53H167.987L211.339 260.181H155.22L120.848 215.146L87.0833 283.236L31.3391 321.537L123.513 130.688L94.4254 111H282.796ZM228.221 147.009H152.788L143.435 167.867H218.634L228.221 147.009Z" fill="#D1AC6C"/>
<path d="M433.661 111L418.462 147.009H345.836L281.674 280.431L228.221 315.925L309.265 147.009H279.99L296.872 111H433.661Z" fill="#D1AC6C"/>
<path d="M31.3391 332.147C38.5264 332.147 45.7381 332.147 52.9498 332.147C53.7864 332.094 54.6245 332.223 55.4065 332.525C56.1884 332.827 56.8954 333.295 57.4788 333.897C58.0621 334.499 58.5079 335.22 58.7854 336.011C59.0629 336.802 59.1654 337.644 59.0859 338.479C59.0859 343.637 56.8857 345.813 51.7519 345.813H49.7229L49.454 346.253L58.9881 355.2L58.6947 355.665C57.2279 355.665 55.7612 355.665 54.2944 355.665C53.8471 355.567 53.4437 355.327 53.1454 354.98C50.2851 352.218 47.4738 349.431 44.5891 346.693C44.049 346.223 43.3717 345.94 42.6578 345.886C40.3354 345.886 37.9886 345.886 35.495 345.886V355.665H31.3391V341.901H52.0942C52.5006 341.972 52.9177 341.947 53.3129 341.829C53.708 341.71 54.0704 341.502 54.3713 341.22C54.6723 340.938 54.9037 340.59 55.0473 340.203C55.1909 339.817 55.2428 339.402 55.1989 338.992C55.2738 338.6 55.2517 338.196 55.1345 337.815C55.0172 337.433 54.8085 337.086 54.5264 336.804C54.2443 336.522 53.8974 336.313 53.5161 336.196C53.1347 336.079 52.7305 336.057 52.3386 336.132C45.3714 336.132 38.4041 336.132 31.4369 336.132L31.3391 332.147Z" fill="#4D4D4D"/>
<path d="M433.581 355.738H406.055V332.172H409.893V351.802H433.581V355.738Z" fill="#4D4D4D"/>
<path d="M77.4208 336.034C75.1717 336.034 72.9226 336.034 70.6736 336.034C70.2401 335.969 69.7973 336.006 69.3807 336.142C68.964 336.278 68.5849 336.51 68.2738 336.818C67.9626 337.127 67.728 337.504 67.5886 337.92C67.4492 338.336 67.409 338.778 67.4711 339.212V348.477C67.4062 348.924 67.446 349.379 67.5873 349.807C67.7286 350.235 67.9676 350.625 68.2853 350.945C68.603 351.265 68.9907 351.507 69.418 351.651C69.8452 351.796 70.3001 351.839 70.7469 351.778H83.948C84.3926 351.845 84.8467 351.806 85.2734 351.665C85.7002 351.523 86.0877 351.283 86.4044 350.964C86.7211 350.645 86.9582 350.256 87.0963 349.828C87.2344 349.4 87.2697 348.946 87.1994 348.502C87.1994 345.422 87.1994 342.317 87.1994 339.237C87.2648 338.803 87.2279 338.36 87.0917 337.944C86.9556 337.527 86.7238 337.148 86.415 336.837C86.1062 336.526 85.729 336.291 85.3134 336.152C84.8977 336.012 84.4553 335.972 84.0213 336.034C81.8212 336.034 79.621 336.034 77.4208 336.034ZM77.4208 332.123C79.8654 332.123 82.3101 332.123 84.7547 332.123C85.7834 332.054 86.8132 332.241 87.7518 332.667C88.6904 333.094 89.5086 333.747 90.133 334.567C90.7764 335.633 91.1381 336.844 91.1842 338.088C91.3308 341.73 91.1842 345.422 91.1842 349.04C91.2832 349.872 91.2013 350.715 90.9442 351.513C90.687 352.31 90.2607 353.043 89.6943 353.66C89.1279 354.278 88.4348 354.765 87.6624 355.09C86.8901 355.415 86.0567 355.569 85.2192 355.542C79.9877 355.738 74.7317 355.738 69.5246 355.542C68.6842 355.572 67.8472 355.421 67.0709 355.098C66.2945 354.775 65.597 354.288 65.0261 353.67C64.4551 353.053 64.0242 352.32 63.7627 351.521C63.5011 350.721 63.4152 349.875 63.5107 349.04C63.5107 345.544 63.5107 342.048 63.5107 338.528C63.4374 337.682 63.5446 336.831 63.8251 336.03C64.1056 335.229 64.5531 334.497 65.1379 333.883C65.7227 333.268 66.4314 332.784 67.2172 332.464C68.0029 332.144 68.8477 331.994 69.6957 332.025H77.4208V332.123Z" fill="#4D4D4D"/>
<path d="M119.273 351.753V341.975H123.135V355.591H121.84C115.606 355.591 109.397 355.591 103.163 355.591C102.234 355.592 101.308 355.493 100.4 355.298C98.9935 355.132 97.7035 354.434 96.7945 353.348C95.8855 352.262 95.4263 350.869 95.5109 349.455C95.5109 345.862 95.5109 342.121 95.5109 338.65C95.4112 337.77 95.5069 336.88 95.7912 336.041C96.0755 335.203 96.5413 334.438 97.1555 333.8C97.7696 333.163 98.5169 332.669 99.344 332.353C100.171 332.038 101.058 331.909 101.94 331.976C104.849 331.976 107.734 331.976 110.643 331.976H122.011H123.038V335.839H103.114C100.498 335.839 99.569 336.792 99.569 339.408V348.82C99.5311 349.162 99.5661 349.51 99.6719 349.838C99.7776 350.166 99.9516 350.469 100.183 350.725C100.413 350.981 100.696 351.186 101.012 351.325C101.327 351.464 101.669 351.535 102.014 351.533C107.71 351.533 113.406 351.533 119.297 351.533" fill="#4D4D4D"/>
<path d="M293.772 337.941C293.772 337.305 293.772 336.767 293.625 336.132C293.202 336.109 292.778 336.109 292.354 336.132H277.491C275.046 336.132 274.019 337.085 273.995 339.603V348.428C273.995 350.873 274.973 351.875 277.515 351.9H297.537V355.787H296.192C290.056 355.787 283.969 355.787 277.784 355.787C276.666 355.787 275.551 355.664 274.459 355.42C273.157 355.167 271.992 354.444 271.186 353.39C270.379 352.336 269.987 351.023 270.083 349.7C270.083 346.082 270.083 342.366 270.083 338.894C269.965 338.005 270.049 337.1 270.33 336.248C270.61 335.395 271.079 334.617 271.701 333.971C272.324 333.324 273.084 332.827 273.926 332.516C274.767 332.204 275.668 332.086 276.562 332.171C280.913 332.171 285.265 332.171 289.616 332.171H297.561V338.014L293.772 337.941Z" fill="#4D4D4D"/>
<path d="M370.167 332.098V337.941H366.329C366.329 337.354 366.329 336.792 366.158 336.034H350.096C347.481 336.034 346.552 336.987 346.552 339.603C346.552 342.219 346.552 345.495 346.552 348.428C346.552 350.873 347.578 351.778 349.901 351.778H370.143V355.713H368.774C362.613 355.713 356.428 355.713 350.268 355.713C349.24 355.719 348.216 355.613 347.212 355.396C345.854 355.163 344.632 354.433 343.782 353.348C342.933 352.264 342.517 350.902 342.616 349.528C342.616 345.935 342.616 342.317 342.616 338.723C342.518 337.845 342.617 336.957 342.905 336.122C343.192 335.286 343.662 334.526 344.279 333.894C344.897 333.263 345.647 332.776 346.475 332.47C347.304 332.163 348.19 332.045 349.07 332.123C352.761 332.123 356.404 332.123 360.168 332.123H370.167" fill="#4D4D4D"/>
<path d="M127.658 332.172H131.619V348.331C131.619 350.775 132.694 351.778 135.041 351.778H148.095C150.345 351.778 151.347 350.775 151.347 348.526V332.172H155.258C155.258 332.636 155.258 333.076 155.258 333.516V349.089C155.358 349.937 155.273 350.796 155.008 351.608C154.743 352.42 154.304 353.164 153.723 353.79C153.142 354.415 152.431 354.907 151.641 355.231C150.851 355.554 150 355.702 149.147 355.665C144.013 355.844 138.863 355.844 133.696 355.665C132.834 355.708 131.973 355.561 131.174 355.235C130.375 354.908 129.658 354.41 129.072 353.776C128.487 353.142 128.048 352.386 127.787 351.564C127.526 350.741 127.448 349.871 127.56 349.015V332.172" fill="#4D4D4D"/>
<path d="M252.139 336.865L245.392 349.675C244.488 351.362 243.583 353.049 242.728 354.785C242.613 355.109 242.389 355.383 242.095 355.561C241.801 355.739 241.455 355.81 241.114 355.762C240.063 355.762 238.987 355.762 237.716 355.762C237.936 355.273 238.083 354.882 238.254 354.54C241.432 348.404 244.61 342.317 247.812 336.107C248.295 335.149 248.895 334.254 249.597 333.443C249.89 333.024 250.28 332.682 250.733 332.446C251.186 332.21 251.69 332.087 252.201 332.087C252.712 332.087 253.215 332.21 253.668 332.446C254.121 332.682 254.511 333.024 254.804 333.443C255.445 334.19 255.995 335.01 256.442 335.887C259.742 342.195 262.994 348.502 266.221 354.809C266.221 355.029 266.416 355.249 266.587 355.689C265.096 355.689 263.727 355.689 262.358 355.689C262.016 355.689 261.649 355.029 261.429 354.613L252.946 338.454C252.726 338.014 252.482 337.574 252.091 336.865" fill="#4D4D4D"/>
<path d="M402.51 355.616H402.217C398.085 355.836 398.085 355.836 396.203 352.242L388.111 336.816C387.769 337.403 387.5 337.794 387.28 338.21C384.444 343.637 381.584 349.04 378.748 354.491C378.62 354.88 378.358 355.212 378.009 355.426C377.66 355.641 377.246 355.726 376.841 355.665C375.839 355.665 374.812 355.665 373.59 355.665C373.883 355.102 374.054 354.687 374.274 354.271C377.379 348.257 380.484 342.219 383.637 336.23C384.148 335.178 384.798 334.2 385.569 333.32C385.871 332.91 386.268 332.579 386.726 332.355C387.184 332.131 387.689 332.022 388.198 332.037C388.708 332.051 389.206 332.189 389.651 332.438C390.095 332.687 390.473 333.04 390.751 333.467C391.375 334.212 391.901 335.034 392.316 335.912C395.641 342.243 398.916 348.6 402.094 354.956C402.094 355.151 402.266 355.371 402.388 355.665" fill="#4D4D4D"/>
<path d="M225.199 336.058H213.465V332.196H240.87V336.034H229.16V355.64H225.199V336.058Z" fill="#4D4D4D"/>
<path d="M329.635 332.172V336.01H317.925V355.64H313.94V336.083H302.206V332.172H329.635Z" fill="#4D4D4D"/>
<path d="M187.357 342.072H159.83V345.813H187.357V342.072Z" fill="#4D4D4D"/>
<path d="M187.308 351.924H159.781V355.664H187.308V351.924Z" fill="#4D4D4D"/>
<path d="M187.357 332.196H159.854V335.961H187.357V332.196Z" fill="#4D4D4D"/>
<path d="M338.021 332.172H334.256V355.64H338.021V332.172Z" fill="#4D4D4D"/>
</g>
<defs>
<clipPath id="clip0_146_22">
<rect width="466" height="466" fill="white"/>
</clipPath>
</defs>
</svg>
