<svg width="1123" height="518" viewBox="0 0 1123 518" fill="none" xmlns="http://www.w3.org/2000/svg">
<rect width="1123" height="518" rx="10" fill="#4B4B4B"/>
<path d="M631.386 75L570.546 204.584H472.322L532.384 281.686H454.634L407.012 219.291L360.232 313.628L283 366.693L410.705 102.277L370.404 75H631.386ZM555.774 124.89H451.264L438.306 153.787H542.491L555.774 124.89Z" fill="#A8A7A7"/>
<path d="M840.405 75L819.347 124.89H718.725L629.831 309.741L555.774 358.918L668.058 124.89H627.499L650.888 75H840.405Z" fill="#A8A7A7"/>
<path d="M142 392.97C156.99 392.97 172.03 392.97 187.071 392.97C188.816 392.859 190.564 393.128 192.195 393.758C193.825 394.388 195.3 395.365 196.517 396.62C197.733 397.876 198.663 399.38 199.242 401.03C199.82 402.68 200.034 404.435 199.868 406.176C199.868 416.934 195.28 421.471 184.573 421.471H180.341L179.78 422.389L199.665 441.05L199.053 442.018C195.994 442.018 192.934 442.018 189.875 442.018C188.942 441.816 188.101 441.315 187.479 440.591C181.514 434.83 175.65 429.017 169.634 423.307C168.508 422.327 167.095 421.737 165.606 421.624C160.763 421.624 155.868 421.624 150.668 421.624V442.018H142V413.314H185.287C186.134 413.461 187.004 413.409 187.828 413.162C188.652 412.916 189.408 412.481 190.036 411.893C190.664 411.305 191.146 410.579 191.446 409.773C191.745 408.967 191.853 408.102 191.762 407.246C191.918 406.429 191.872 405.586 191.627 404.791C191.383 403.996 190.948 403.272 190.359 402.684C189.771 402.095 189.047 401.66 188.252 401.416C187.457 401.171 186.614 401.125 185.796 401.281C171.266 401.281 156.735 401.281 142.204 401.281L142 392.97Z" fill="#A8A7A7"/>
<path d="M980.914 442.172H923.505V393.022H931.51V433.963H980.914V442.172Z" fill="#A8A7A7"/>
<path d="M238.107 401.077C233.417 401.077 228.726 401.077 224.035 401.077C223.131 400.941 222.208 401.018 221.339 401.302C220.47 401.586 219.679 402.069 219.03 402.713C218.381 403.357 217.892 404.144 217.601 405.011C217.311 405.878 217.227 406.8 217.356 407.705V427.029C217.221 427.96 217.304 428.909 217.599 429.802C217.893 430.696 218.392 431.508 219.054 432.176C219.717 432.843 220.526 433.347 221.417 433.649C222.308 433.95 223.256 434.04 224.188 433.912H251.72C252.647 434.052 253.595 433.971 254.485 433.676C255.375 433.381 256.183 432.881 256.843 432.215C257.504 431.55 257.998 430.738 258.286 429.846C258.574 428.954 258.648 428.006 258.501 427.08C258.501 420.656 258.501 414.18 258.501 407.756C258.638 406.852 258.561 405.929 258.277 405.06C257.993 404.191 257.51 403.4 256.866 402.751C256.222 402.102 255.435 401.613 254.568 401.322C253.701 401.032 252.778 400.948 251.873 401.077C247.285 401.077 242.696 401.077 238.107 401.077ZM238.107 392.92C243.206 392.92 248.304 392.92 253.403 392.92C255.548 392.776 257.696 393.166 259.654 394.056C261.611 394.946 263.317 396.307 264.62 398.018C265.961 400.24 266.716 402.766 266.812 405.36C267.118 412.957 266.812 420.656 266.812 428.201C267.018 429.937 266.848 431.696 266.311 433.359C265.775 435.022 264.886 436.55 263.705 437.838C262.523 439.126 261.078 440.143 259.467 440.821C257.856 441.498 256.118 441.82 254.372 441.764C243.461 442.171 232.499 442.171 221.639 441.764C219.886 441.826 218.141 441.51 216.521 440.836C214.902 440.162 213.448 439.147 212.257 437.859C211.066 436.572 210.167 435.042 209.622 433.376C209.076 431.709 208.897 429.944 209.096 428.201C209.096 420.911 209.096 413.62 209.096 406.278C208.944 404.515 209.167 402.739 209.752 401.069C210.337 399.399 211.27 397.872 212.49 396.59C213.71 395.308 215.188 394.299 216.827 393.631C218.465 392.963 220.227 392.651 221.996 392.716H238.107V392.92Z" fill="#A8A7A7"/>
<path d="M325.395 433.861V413.467H333.451V441.866H330.748C317.747 441.866 304.797 441.866 291.796 441.866C289.859 441.867 287.927 441.662 286.034 441.254C283.1 440.908 280.41 439.453 278.514 437.187C276.618 434.922 275.661 432.017 275.837 429.068C275.837 421.573 275.837 413.773 275.837 406.533C275.629 404.698 275.829 402.841 276.422 401.092C277.015 399.344 277.986 397.748 279.267 396.418C280.548 395.089 282.106 394.059 283.831 393.401C285.556 392.743 287.405 392.474 289.246 392.614C295.314 392.614 301.33 392.614 307.397 392.614H331.105H333.247V400.669H291.694C286.238 400.669 284.301 402.658 284.301 408.113V427.743C284.222 428.458 284.295 429.182 284.515 429.866C284.736 430.551 285.099 431.182 285.58 431.716C286.062 432.251 286.651 432.677 287.309 432.968C287.968 433.258 288.68 433.406 289.399 433.402C301.279 433.402 313.158 433.402 325.446 433.402" fill="#A8A7A7"/>
<path d="M689.328 405.054C689.328 403.729 689.328 402.607 689.022 401.281C688.139 401.233 687.254 401.233 686.371 401.281H655.372C650.273 401.281 648.132 403.27 648.081 408.521V426.927C648.081 432.025 650.12 434.116 655.423 434.167H697.18V442.274H694.376C681.578 442.274 668.883 442.274 655.984 442.274C653.651 442.274 651.326 442.018 649.05 441.509C646.333 440.98 643.904 439.474 642.222 437.276C640.541 435.077 639.723 432.339 639.923 429.578C639.923 422.032 639.923 414.283 639.923 407.043C639.677 405.187 639.853 403.301 640.437 401.523C641.021 399.745 641.999 398.121 643.298 396.774C644.596 395.426 646.182 394.389 647.937 393.739C649.692 393.09 651.571 392.844 653.434 393.022C662.51 393.022 671.585 393.022 680.661 393.022H697.231V405.207L689.328 405.054Z" fill="#A8A7A7"/>
<path d="M848.658 392.869V405.054H840.653C840.653 403.83 840.653 402.658 840.296 401.077H806.799C801.343 401.077 799.406 403.066 799.406 408.521C799.406 413.977 799.406 420.809 799.406 426.927C799.406 432.025 801.547 433.912 806.391 433.912H848.607V442.12H845.752C832.903 442.12 820.004 442.12 807.156 442.12C805.013 442.132 802.876 441.91 800.782 441.458C797.951 440.971 795.402 439.45 793.63 437.188C791.858 434.926 790.991 432.087 791.197 429.221C791.197 421.726 791.197 414.18 791.197 406.686C790.994 404.855 791.199 403.002 791.799 401.26C792.399 399.518 793.379 397.931 794.667 396.614C795.954 395.297 797.519 394.282 799.246 393.643C800.974 393.005 802.822 392.757 804.657 392.92C812.356 392.92 819.953 392.92 827.805 392.92H848.658" fill="#A8A7A7"/>
<path d="M342.883 393.022H351.142V426.723C351.142 431.822 353.386 433.912 358.28 433.912H385.507C390.197 433.912 392.288 431.822 392.288 427.131V393.022H400.445C400.445 393.99 400.445 394.908 400.445 395.826V428.304C400.654 430.072 400.476 431.865 399.923 433.558C399.37 435.251 398.455 436.804 397.243 438.108C396.031 439.413 394.549 440.438 392.901 441.113C391.253 441.789 389.478 442.097 387.699 442.019C376.992 442.393 366.251 442.393 355.476 442.019C353.678 442.109 351.882 441.802 350.216 441.122C348.549 440.441 347.053 439.402 345.832 438.08C344.611 436.757 343.696 435.182 343.151 433.466C342.606 431.75 342.445 429.936 342.679 428.151V393.022" fill="#A8A7A7"/>
<path d="M602.5 402.811L588.428 429.527C586.542 433.045 584.655 436.563 582.871 440.183C582.631 440.859 582.165 441.431 581.552 441.803C580.939 442.174 580.216 442.323 579.506 442.223C577.314 442.223 575.07 442.223 572.419 442.223C572.878 441.203 573.184 440.387 573.541 439.673C580.169 426.876 586.797 414.181 593.476 401.23C594.483 399.231 595.733 397.365 597.198 395.673C597.809 394.8 598.622 394.087 599.567 393.595C600.512 393.103 601.562 392.846 602.628 392.846C603.693 392.846 604.743 393.103 605.689 393.595C606.634 394.087 607.447 394.8 608.058 395.673C609.395 397.231 610.542 398.942 611.474 400.771C618.357 413.926 625.138 427.08 631.868 440.234C631.868 440.693 632.276 441.152 632.633 442.07C629.523 442.07 626.667 442.07 623.812 442.07C623.098 442.07 622.334 440.693 621.875 439.826L604.183 406.125C603.724 405.207 603.214 404.289 602.398 402.811" fill="#A8A7A7"/>
<path d="M916.112 441.917H915.5C906.883 442.376 906.883 442.376 902.957 434.881L886.081 402.709C885.367 403.933 884.807 404.748 884.348 405.615C878.433 416.934 872.468 428.202 866.554 439.571C866.286 440.383 865.741 441.074 865.013 441.522C864.285 441.97 863.422 442.146 862.577 442.019C860.487 442.019 858.345 442.019 855.796 442.019C856.408 440.846 856.765 439.979 857.223 439.112C863.699 426.57 870.174 413.977 876.751 401.485C877.817 399.292 879.171 397.252 880.779 395.418C881.408 394.562 882.236 393.871 883.192 393.404C884.147 392.938 885.201 392.71 886.263 392.74C887.326 392.77 888.365 393.057 889.293 393.577C890.22 394.097 891.007 394.833 891.588 395.724C892.888 397.277 893.985 398.991 894.851 400.822C901.785 414.028 908.617 427.284 915.245 440.54C915.245 440.948 915.602 441.407 915.857 442.019" fill="#A8A7A7"/>
<path d="M546.315 401.128H521.842V393.072H578.996V401.077H554.574V441.967H546.315V401.128Z" fill="#A8A7A7"/>
<path d="M764.125 393.022V401.026H739.703V441.968H731.392V401.179H706.919V393.022H764.125Z" fill="#A8A7A7"/>
<path d="M467.389 413.671H409.979V421.471H467.389V413.671Z" fill="#A8A7A7"/>
<path d="M467.287 434.218H409.877V442.018H467.287V434.218Z" fill="#A8A7A7"/>
<path d="M467.389 393.072H410.031V400.924H467.389V393.072Z" fill="#A8A7A7"/>
<path d="M781.613 393.022H773.761V441.968H781.613V393.022Z" fill="#A8A7A7"/>
</svg>
