<svg width="954" height="466" viewBox="0 0 954 466" fill="none" xmlns="http://www.w3.org/2000/svg">
<g clip-path="url(#clip0_146_22)">
<rect width="954" height="466" fill="white"/>
<rect x="-84" y="-26" width="1123" height="518" rx="10" fill="#0B0B0D"/>
<g opacity="0.1">
<path d="M677.141 -185L502.662 186.629H220.967L393.217 407.748H170.239L33.6657 228.809L-100.492 499.355L-321.983 651.537L44.2571 -106.772L-71.3195 -185H677.141ZM460.296 -41.9227H160.577L123.414 40.9506H422.204L460.296 -41.9227Z" fill="#A8A7A7"/>
<path d="M1276.58 -185L1216.19 -41.9227H927.62L672.682 488.206L460.296 629.24L782.313 -41.9227H665.993L733.072 -185H1276.58Z" fill="#A8A7A7"/>
</g>
<path d="M553.879 46.6984L486.898 189.364H378.757L444.882 274.251H359.283L306.853 205.557L255.351 309.418L170.322 367.84L310.919 76.7296L266.55 46.6984H553.879ZM470.634 101.625H355.574L341.307 133.439H456.01L470.634 101.625Z" fill="#D1AC6C"/>
<path d="M784 46.6984L760.816 101.625H650.036L552.167 305.138L470.634 359.28L594.254 101.625H549.599L575.351 46.6984H784Z" fill="#D1AC6C"/>
<path d="M170.322 384.023C181.285 384.023 192.285 384.023 203.285 384.023C204.562 383.942 205.84 384.138 207.033 384.599C208.225 385.06 209.304 385.774 210.194 386.693C211.084 387.611 211.764 388.711 212.187 389.918C212.61 391.124 212.766 392.408 212.645 393.681C212.645 401.549 209.289 404.868 201.458 404.868H198.363L197.953 405.539L212.496 419.187L212.048 419.895C209.811 419.895 207.574 419.895 205.336 419.895C204.654 419.747 204.039 419.381 203.584 418.851C199.221 414.638 194.933 410.387 190.533 406.21C189.709 405.494 188.676 405.062 187.587 404.98C184.044 404.98 180.464 404.98 176.661 404.98V419.895H170.322V398.902H201.98C202.6 399.009 203.237 398.971 203.839 398.791C204.442 398.611 204.995 398.293 205.454 397.863C205.913 397.433 206.266 396.902 206.485 396.312C206.704 395.722 206.783 395.09 206.716 394.464C206.83 393.866 206.797 393.25 206.618 392.668C206.439 392.087 206.121 391.557 205.69 391.127C205.26 390.697 204.731 390.378 204.149 390.2C203.568 390.021 202.951 389.987 202.353 390.101C191.726 390.101 181.098 390.101 170.471 390.101L170.322 384.023Z" fill="#4D4D4D"/>
<path d="M783.879 420.008H741.891V384.061H747.745V414.004H783.879V420.008Z" fill="#4D4D4D"/>
<path d="M240.612 389.952C237.182 389.952 233.751 389.952 230.32 389.952C229.659 389.853 228.984 389.909 228.348 390.116C227.713 390.324 227.135 390.678 226.66 391.149C226.185 391.62 225.827 392.195 225.615 392.829C225.402 393.463 225.341 394.138 225.435 394.8V408.933C225.337 409.613 225.397 410.308 225.613 410.961C225.828 411.614 226.193 412.208 226.677 412.697C227.162 413.185 227.754 413.554 228.405 413.774C229.057 413.995 229.751 414.06 230.432 413.967H250.568C251.247 414.069 251.939 414.01 252.59 413.794C253.241 413.579 253.832 413.213 254.315 412.726C254.798 412.239 255.16 411.645 255.371 410.993C255.581 410.34 255.635 409.647 255.528 408.97C255.528 404.271 255.528 399.536 255.528 394.837C255.628 394.176 255.571 393.501 255.364 392.865C255.156 392.23 254.803 391.651 254.332 391.177C253.861 390.702 253.285 390.344 252.651 390.132C252.017 389.919 251.342 389.858 250.68 389.952C247.324 389.952 243.968 389.952 240.612 389.952ZM240.612 383.986C244.341 383.986 248.07 383.986 251.799 383.986C253.368 383.881 254.939 384.166 256.371 384.817C257.802 385.468 259.05 386.463 260.003 387.715C260.984 389.34 261.536 391.188 261.606 393.085C261.83 398.641 261.606 404.271 261.606 409.79C261.757 411.059 261.632 412.346 261.24 413.562C260.848 414.779 260.197 415.896 259.333 416.838C258.47 417.78 257.412 418.524 256.234 419.02C255.056 419.515 253.785 419.75 252.507 419.709C244.528 420.007 236.51 420.007 228.568 419.709C227.286 419.755 226.009 419.524 224.825 419.031C223.641 418.538 222.577 417.795 221.706 416.854C220.835 415.912 220.178 414.793 219.779 413.574C219.38 412.355 219.249 411.065 219.395 409.79C219.395 404.458 219.395 399.125 219.395 393.756C219.283 392.466 219.446 391.168 219.874 389.946C220.302 388.725 220.985 387.608 221.877 386.67C222.769 385.733 223.85 384.995 225.048 384.507C226.247 384.018 227.535 383.79 228.829 383.837H240.612V383.986Z" fill="#4D4D4D"/>
<path d="M304.451 413.929V399.014H310.343V419.784H308.366C298.858 419.784 289.386 419.784 279.877 419.784C278.461 419.785 277.048 419.635 275.664 419.336C273.518 419.083 271.55 418.019 270.164 416.362C268.777 414.705 268.077 412.581 268.206 410.424C268.206 404.943 268.206 399.237 268.206 393.942C268.054 392.601 268.2 391.242 268.633 389.963C269.067 388.685 269.778 387.517 270.714 386.545C271.651 385.573 272.791 384.819 274.053 384.338C275.314 383.857 276.667 383.66 278.013 383.762C282.45 383.762 286.85 383.762 291.288 383.762H308.627H310.194V389.654H279.803C275.813 389.654 274.396 391.108 274.396 395.098V409.455C274.338 409.978 274.391 410.507 274.553 411.008C274.714 411.509 274.979 411.97 275.332 412.361C275.684 412.752 276.115 413.064 276.596 413.276C277.078 413.489 277.599 413.597 278.125 413.594C286.813 413.594 295.502 413.594 304.488 413.594" fill="#4D4D4D"/>
<path d="M570.622 392.861C570.622 391.891 570.622 391.071 570.398 390.101C569.752 390.066 569.105 390.066 568.459 390.101H545.787C542.058 390.101 540.492 391.556 540.455 395.396V408.858C540.455 412.587 541.946 414.116 545.824 414.153H576.364V420.082H574.313C564.954 420.082 555.669 420.082 546.234 420.082C544.529 420.082 542.828 419.895 541.163 419.523C539.176 419.136 537.4 418.034 536.17 416.427C534.94 414.819 534.342 412.816 534.488 410.797C534.488 405.278 534.488 399.61 534.488 394.315C534.308 392.958 534.437 391.578 534.864 390.278C535.291 388.978 536.006 387.79 536.956 386.805C537.906 385.819 539.066 385.061 540.349 384.585C541.633 384.11 543.007 383.931 544.37 384.061C551.007 384.061 557.645 384.061 564.282 384.061H576.401V392.973L570.622 392.861Z" fill="#4D4D4D"/>
<path d="M687.15 383.949V392.861H681.296C681.296 391.966 681.296 391.108 681.035 389.952H656.536C652.546 389.952 651.129 391.407 651.129 395.396C651.129 399.386 651.129 404.383 651.129 408.858C651.129 412.587 652.695 413.967 656.237 413.967H687.113V419.97H685.025C675.628 419.97 666.194 419.97 656.797 419.97C655.23 419.979 653.667 419.816 652.136 419.485C650.065 419.13 648.2 418.017 646.904 416.363C645.609 414.709 644.975 412.632 645.125 410.536C645.125 405.054 645.125 399.536 645.125 394.054C644.976 392.715 645.127 391.36 645.566 390.086C646.004 388.812 646.721 387.651 647.663 386.688C648.605 385.725 649.749 384.983 651.012 384.515C652.276 384.048 653.628 383.867 654.97 383.986C660.6 383.986 666.156 383.986 671.899 383.986H687.15" fill="#4D4D4D"/>
<path d="M317.241 384.061H323.282V408.709C323.282 412.438 324.923 413.967 328.503 413.967H348.415C351.846 413.967 353.375 412.438 353.375 409.007V384.061H359.341C359.341 384.769 359.341 385.44 359.341 386.112V409.865C359.494 411.158 359.363 412.47 358.959 413.708C358.554 414.946 357.886 416.081 356.999 417.036C356.112 417.99 355.029 418.74 353.823 419.233C352.618 419.727 351.32 419.953 350.019 419.896C342.188 420.169 334.332 420.169 326.452 419.896C325.137 419.961 323.824 419.737 322.605 419.24C321.386 418.742 320.291 417.982 319.398 417.015C318.506 416.047 317.836 414.895 317.438 413.64C317.039 412.385 316.921 411.058 317.092 409.753V384.061" fill="#4D4D4D"/>
<path d="M507.118 391.22L496.826 410.76C495.446 413.333 494.067 415.906 492.761 418.553C492.586 419.047 492.245 419.466 491.797 419.738C491.348 420.009 490.82 420.118 490.3 420.045C488.697 420.045 487.056 420.045 485.117 420.045C485.453 419.299 485.677 418.702 485.938 418.18C490.785 408.821 495.633 399.536 500.518 390.064C501.254 388.602 502.168 387.237 503.24 386C503.687 385.361 504.281 384.84 504.972 384.48C505.664 384.12 506.432 383.932 507.211 383.932C507.99 383.932 508.758 384.12 509.45 384.48C510.141 384.84 510.735 385.361 511.182 386C512.16 387.139 512.999 388.391 513.681 389.729C518.715 399.349 523.674 408.97 528.596 418.59C528.596 418.926 528.895 419.262 529.156 419.933C526.881 419.933 524.793 419.933 522.705 419.933C522.183 419.933 521.623 418.926 521.288 418.292L508.348 393.644C508.013 392.973 507.64 392.302 507.043 391.22" fill="#4D4D4D"/>
<path d="M736.484 419.821H736.037C729.735 420.157 729.735 420.157 726.864 414.675L714.521 391.146C713.999 392.04 713.589 392.637 713.253 393.271C708.927 401.549 704.565 409.79 700.239 418.106C700.044 418.699 699.644 419.205 699.112 419.532C698.58 419.86 697.949 419.989 697.331 419.896C695.802 419.896 694.236 419.896 692.371 419.896C692.819 419.038 693.08 418.404 693.415 417.77C698.151 408.597 702.887 399.386 707.697 390.251C708.477 388.647 709.467 387.154 710.643 385.813C711.103 385.187 711.709 384.682 712.408 384.34C713.106 383.999 713.877 383.833 714.654 383.855C715.431 383.877 716.191 384.087 716.87 384.467C717.548 384.847 718.124 385.386 718.548 386.037C719.499 387.173 720.301 388.426 720.935 389.766C726.006 399.424 731.003 409.119 735.85 418.814C735.85 419.112 736.111 419.448 736.298 419.896" fill="#4D4D4D"/>
<path d="M466.025 389.989H448.126V384.098H489.927V389.952H472.066V419.858H466.025V389.989Z" fill="#4D4D4D"/>
<path d="M625.325 384.061V389.915H607.464V419.858H601.386V390.027H583.487V384.061H625.325Z" fill="#4D4D4D"/>
<path d="M408.302 399.163H366.314V404.868H408.302V399.163Z" fill="#4D4D4D"/>
<path d="M408.227 414.19H366.24V419.895H408.227V414.19Z" fill="#4D4D4D"/>
<path d="M408.301 384.098H366.351V389.84H408.301V384.098Z" fill="#4D4D4D"/>
<path d="M638.116 384.061H632.373V419.858H638.116V384.061Z" fill="#4D4D4D"/>
</g>
<defs>
<clipPath id="clip0_146_22">
<rect width="954" height="466" fill="white"/>
</clipPath>
</defs>
</svg>
